<svg xmlns="http://www.w3.org/2000/svg" width="64" height="64" viewBox="0 0 512 512">
  <defs>
    <style>
      .cls-1 {
        fill-rule: evenodd;
      }
    </style>
  </defs>
  <path id="Color_Fill_1" data-name="Color Fill 1" class="cls-1" d="M112.167,212.026H399.3c6.317,0.5,11.7-6.027,11.7-14s-5.387-14.5-11.7-14H112.167c-5.992,0-10.923,6.319-10.923,14S106.175,212.026,112.167,212.026ZM101,269.614c-0.041-7.88,4.97-14.466,11.163-14.6H399.3c6.264,0,11.389,6.629,11.347,14.6-0.042,7.892-5.141,14.4-11.347,14.4H112.167C106.032,283.885,101.045,277.42,101,269.614Zm0,70.987c-0.041-7.88,4.97-14.466,11.163-14.6H399.3c6.264,0,11.389,6.629,11.347,14.6C410.6,348.493,405.5,355,399.3,355H112.167C106.032,354.872,101.045,348.407,101,340.6Z"/>
</svg>
